# Blender 4.5.3 LTS
# www.blender.org
mtllib arrow1.mtl
o Polygon_62
v 0.000000 0.054919 0.006628
v 0.000000 0.270834 0.006628
v 0.006628 0.054919 -0.000000
v -0.006628 0.270834 -0.000000
v 0.006628 0.270834 -0.000000
v 0.000000 0.270834 -0.006628
v 0.000000 0.054919 -0.006628
v -0.002273 -0.298785 -0.000000
v -0.028092 -0.259739 -0.000000
v -0.000000 -0.378341 -0.006628
v -0.005118 -0.378341 -0.001509
v -0.000000 -0.378341 -0.001509
v -0.000000 -0.368189 -0.001509
v 0.005118 -0.368189 -0.001509
v 0.005118 -0.378341 -0.001509
v -0.000000 -0.378341 0.001509
v -0.000000 -0.378341 0.006628
v 0.005118 -0.378341 0.001509
v -0.005118 -0.378341 0.001509
v 0.000000 -0.297997 -0.028810
v 0.000000 -0.335389 -0.022910
v 0.000000 -0.240528 -0.028804
v 0.000000 -0.206887 -0.002273
v 0.000000 -0.298785 -0.002273
v 0.000000 -0.259739 -0.028092
v 0.000000 -0.358975 -0.002273
v -0.028804 -0.240528 -0.000000
v -0.002273 -0.206887 -0.000000
v -0.028810 -0.297997 -0.000000
v -0.022910 -0.335389 -0.000000
v -0.002273 -0.358975 0.000000
v 0.002273 -0.298785 0.000000
v 0.028810 -0.297997 0.000000
v 0.022910 -0.335389 0.000000
v 0.002273 -0.358975 0.000000
v 0.028804 -0.240528 0.000000
v 0.002273 -0.206887 0.000000
v 0.028092 -0.259739 0.000000
v -0.000000 -0.206887 0.002273
v -0.000000 -0.240528 0.028804
v -0.000000 -0.298785 0.002273
v -0.000000 -0.259739 0.028092
v -0.000000 -0.297997 0.028810
v -0.000000 -0.335389 0.022910
v -0.000000 -0.358975 0.002274
v 0.000000 -0.164171 -0.006628
v -0.000000 -0.368189 -0.006628
v -0.005118 -0.368189 -0.001509
v -0.006628 -0.164170 -0.000000
v -0.006628 -0.367717 0.000000
v 0.006628 -0.164171 -0.000000
v -0.005118 -0.368189 0.001509
v 0.000000 -0.164171 0.006628
v -0.000000 -0.368189 0.006628
v -0.000000 -0.367717 0.000000
v 0.006628 -0.367717 0.000000
v 0.005118 -0.368189 0.001509
v -0.000000 -0.368189 0.001509
v -0.006628 0.054919 -0.000000
v 0.000000 0.273335 0.008680
v -0.008150 0.273335 -0.000000
v 0.008150 0.273335 -0.000000
v 0.000000 0.273335 -0.008680
v 0.005540 0.303333 -0.000000
v -0.010807 0.301706 -0.000000
v -0.005540 0.303333 -0.000000
v -0.004479 0.303756 0.005330
v -0.004639 0.303884 -0.005070
v -0.000000 0.300066 0.005812
v -0.000000 0.300066 -0.005813
v -0.003330 0.349483 -0.000000
v -0.003923 0.301549 0.013041
v -0.004003 0.301612 -0.012912
v -0.002278 0.363714 -0.000000
v -0.000000 0.295600 -0.018165
v -0.000000 0.295600 0.018165
v -0.000000 0.378341 -0.000000
v 0.002277 0.363714 -0.000000
v 0.004003 0.301612 -0.012912
v 0.003923 0.301549 0.013041
v 0.003329 0.349483 -0.000000
v 0.004478 0.303756 0.005330
v 0.010807 0.301706 -0.000000
v 0.004639 0.303884 -0.005070
vn -0.7071 -0.0000 0.7071
vn -0.6965 -0.1726 0.6965
vn 0.6965 -0.1726 0.6965
vn 0.7071 -0.0000 0.7071
vn -0.7071 -0.0000 -0.7071
vn -0.6791 -0.3104 -0.6652
vn -0.6965 -0.1726 -0.6965
vn 0.6965 -0.1726 -0.6965
vn 0.6791 -0.3104 -0.6652
vn 0.7071 -0.0000 -0.7071
vn -0.0000 -0.0000 1.0000
vn -0.0000 -1.0000 -0.0000
vn -0.0000 -0.0000 -1.0000
vn 1.0000 -0.0000 -0.0000
vn -1.0000 -0.0000 -0.0000
vn -0.0000 -0.9545 0.2984
vn -0.0000 -0.9545 0.2983
vn -0.0000 -0.9545 -0.2983
vn -0.6791 -0.3104 0.6652
vn -0.6917 -0.2877 0.6624
vn 0.6917 -0.2878 0.6624
vn 0.6791 -0.3104 0.6652
vn -0.7182 -0.0927 -0.6896
vn -0.6917 -0.2877 -0.6624
vn 0.6917 -0.2878 -0.6623
vn -0.7162 0.0673 -0.6947
vn 0.7182 -0.0927 -0.6896
vn 0.7162 0.0673 -0.6947
vn -0.7162 0.0673 0.6947
vn -0.7051 0.0613 0.7065
vn -0.7182 -0.0927 0.6896
vn 0.7182 -0.0927 0.6896
vn 0.7051 0.0613 0.7065
vn 0.7162 0.0673 0.6947
vn 0.2951 -0.9553 -0.0171
vn 0.2951 -0.9553 -0.0170
vn 0.2951 -0.9553 0.0170
vn 0.2947 -0.9542 -0.0513
vn -0.6363 -0.7714 0.0053
vn -0.6367 -0.7483 0.1862
vn -0.6636 -0.7439 -0.0789
vn -0.5855 -0.7953 0.1569
vn -0.5855 -0.7954 0.1569
vn -0.4563 -0.8875 0.0640
vn -0.6601 0.1033 0.7441
vn -0.6530 0.1022 -0.7505
vn -0.9985 0.0551 -0.0016
vn -0.9961 0.0345 0.0816
vn -0.9292 0.0963 0.3567
vn -0.9432 0.1334 -0.3041
vn -0.9834 0.1367 -0.1193
vn -0.6949 -0.6763 0.2445
vn -0.7494 0.1471 -0.6456
vn -0.9892 0.1467 0.0015
vn -0.7476 0.1477 0.6475
vn -0.7007 -0.6710 -0.2426
vn -0.6595 -0.7219 -0.2098
vn 0.7494 0.1471 -0.6456
vn 0.8092 0.1260 -0.5739
vn 0.9892 0.1467 0.0015
vn 0.8092 0.1260 0.5739
vn 0.7476 0.1477 0.6475
vn 0.6845 -0.7259 0.0675
vn 0.6310 -0.7747 0.0419
vn 0.6877 -0.6984 0.1982
vn 0.6858 -0.7244 -0.0709
vn 0.7779 -0.6168 -0.1205
vn 0.6926 -0.6933 -0.1989
vn 0.9985 0.0551 -0.0016
vn 0.9292 0.0963 0.3567
vn 0.9290 0.0973 -0.3572
vn 0.6324 -0.7733 -0.0449
vn 0.6367 -0.7483 0.1862
vn 0.6601 0.1033 0.7441
vn -0.2951 -0.9553 -0.0173
vn -0.2951 -0.9553 0.0170
vn -0.2951 -0.9553 -0.0170
vn 0.6529 0.1022 -0.7505
vn -0.2947 -0.9542 -0.0513
vn 0.6418 -0.7418 -0.1947
vn -0.7051 0.0613 -0.7065
vn 0.7051 0.0613 -0.7065
vn -0.9615 0.2332 -0.1455
vn -0.8092 0.1260 -0.5739
vn -0.8092 0.1260 0.5739
vn 0.7768 -0.6189 0.1163
vn 0.9961 0.0345 0.0816
vn 0.9950 0.0388 -0.0919
vt 0.780651 0.007014
vt 0.835906 0.007014
vt 0.835906 0.992339
vt 0.780651 0.992339
vt 0.725396 0.992339
vt 0.555481 0.519690
vt 0.555481 0.985434
vt 0.299625 0.814928
vt 0.309813 0.523676
vt 0.365882 0.350066
vt 0.592571 0.806932
vt 0.639374 0.783532
vt 0.592571 0.783532
vt 0.592571 0.653525
vt 0.639375 0.676925
vt 0.592571 0.676925
vt 0.639367 0.737122
vt 0.705556 0.783532
vt 0.705556 0.737122
vt 0.592571 0.737122
vt 0.639367 0.723335
vt 0.592571 0.723335
vt 0.705556 0.676925
vt 0.705556 0.723335
vt 0.331334 0.717564
vt 0.555481 0.214653
vt 0.021418 0.519690
vt 0.021418 0.985434
vt 0.277274 0.814928
vt 0.211018 0.350066
vt 0.267086 0.523676
vt 0.245565 0.717564
vt 0.021418 0.214653
vt 0.583423 0.598493
vt 0.583423 0.006978
vt 0.626095 0.006978
vt 0.638676 0.598493
vt 0.638676 0.006978
vt 0.651257 0.006978
vt 0.693929 0.598493
vt 0.693929 0.006978
vt 0.592571 0.730228
vt 0.653169 0.730228
vt 0.868216 0.992339
vt 0.868216 0.007014
vt 0.923470 0.007014
vt 0.978725 0.992339
vt 0.923470 0.992339
vt 0.291191 0.878559
vt 0.362773 0.878350
vt 0.374255 0.889263
vt 0.291192 0.887760
vt 0.208130 0.889267
vt 0.219610 0.878354
vt 0.233921 0.983132
vt 0.348481 0.983129
vt 0.291201 0.988709
vt 0.286596 0.048943
vt 0.286596 0.033462
vt 0.346379 0.048237
vt 0.229462 0.048706
vt 0.361207 0.014002
vt 0.156098 0.043027
vt 0.212200 0.013784
vt 0.286596 0.306833
vt 0.418601 0.042835
vt 0.092558 0.013784
vt 0.286596 0.385302
vt 0.480819 0.014002
vt 0.286596 0.468177
vt 0.725396 0.007014
vt 0.978725 0.007014
s 1
usemtl xyc4d_0067
f 59/1/1 1/2/1 2/3/2
f 2/3/3 1/2/4 3/1/4
f 59/1/5 4/4/6 6/5/7
f 6/5/8 5/4/9 3/1/10
f 8/6/11 28/7/11 27/8/11
f 8/6/11 29/9/11 30/10/11
f 10/11/12 15/12/12 12/13/12
f 10/11/12 12/13/12 11/12/12
f 17/14/12 19/15/12 16/16/12
f 17/14/12 16/16/12 18/15/12
f 14/17/10 15/12/10 10/18/10
f 48/17/5 47/19/5 10/18/5
f 48/17/11 11/12/11 12/13/11
f 14/17/11 13/20/11 12/13/11
f 16/16/13 19/15/13 52/21/13
f 16/16/13 58/22/13 57/21/13
f 17/23/4 18/15/4 57/21/4
f 17/23/1 54/24/1 52/21/1
f 22/8/14 23/7/14 24/6/14
f 21/10/14 20/9/14 25/25/14
f 24/6/14 26/26/14 21/10/14
f 8/6/13 29/9/13 9/25/13
f 32/27/13 37/28/13 36/29/13
f 34/30/11 33/31/11 38/32/11
f 32/27/11 35/33/11 34/30/11
f 41/27/14 43/31/14 44/30/14
f 40/29/15 39/28/15 41/27/15
f 41/27/15 43/31/15 42/32/15
f 46/34/5 47/35/5 48/36/5
f 14/36/10 47/35/10 46/34/10
f 49/37/5 48/36/5 50/38/5
f 49/37/1 50/38/1 52/39/1
f 51/37/10 56/38/10 14/36/10
f 53/40/4 57/39/4 56/38/4
f 52/39/1 54/41/1 53/40/1
f 53/40/4 54/41/4 57/39/4
f 55/42/12 13/20/16 14/17/17
f 48/17/17 13/20/16 55/42/12
f 55/42/12 56/43/12 57/21/18
f 52/21/18 50/43/12 55/42/12
f 7/44/5 46/45/5 49/46/5
f 51/46/10 46/45/10 7/44/10
f 1/47/1 59/48/1 49/46/1
f 51/46/4 3/48/4 1/47/4
f 4/49/19 2/50/2 60/51/20
f 60/51/21 2/50/3 5/49/22
f 4/49/6 61/52/23 63/53/24
f 5/49/9 6/54/8 63/53/25
f 70/55/26 63/53/24 61/52/23
f 62/52/27 63/53/25 70/55/28
f 69/56/29 66/57/30 61/52/31
f 62/52/32 64/57/33 69/56/34
f 65/58/35 66/59/36 67/60/37
f 65/58/35 68/61/38 66/59/36
f 67/60/39 66/59/40 69/62/41
f 73/63/42 70/64/43 66/59/44
f 65/58/45 67/60/45 71/65/45
f 65/58/46 71/65/46 68/61/46
f 71/65/47 67/60/48 72/66/49
f 73/63/50 68/61/51 71/65/47
f 73/63/42 75/67/52 70/64/43
f 75/67/53 73/63/50 74/68/54
f 74/68/54 72/66/49 76/69/55
f 69/62/41 76/69/56 72/66/57
f 75/67/58 77/70/59 78/68/60
f 78/68/60 77/70/61 76/69/62
f 84/61/63 70/64/64 75/67/65
f 82/60/66 80/66/67 76/69/68
f 81/65/69 78/68/60 80/66/70
f 79/63/71 78/68/60 81/65/69
f 82/60/66 69/62/72 64/59/73
f 83/58/74 81/65/74 82/60/74
f 83/58/75 82/60/76 64/59/77
f 83/58/78 84/61/78 81/65/78
f 83/58/75 64/59/77 84/61/79
f 84/61/63 64/59/80 70/64/64
f 4/4/19 59/1/1 2/3/2
f 5/4/22 2/3/3 3/1/4
f 7/71/5 59/1/5 6/5/7
f 7/71/10 6/5/8 3/1/10
f 9/25/11 8/6/11 27/8/11
f 31/26/11 8/6/11 30/10/11
f 47/19/10 14/17/10 10/18/10
f 11/12/5 48/17/5 10/18/5
f 13/20/11 48/17/11 12/13/11
f 15/12/11 14/17/11 12/13/11
f 58/22/13 16/16/13 52/21/13
f 18/15/13 16/16/13 57/21/13
f 54/24/4 17/23/4 57/21/4
f 19/15/1 17/23/1 52/21/1
f 25/25/14 22/8/14 24/6/14
f 24/6/14 21/10/14 25/25/14
f 38/32/13 32/27/13 36/29/13
f 32/27/11 34/30/11 38/32/11
f 45/33/14 41/27/14 44/30/14
f 42/32/15 40/29/15 41/27/15
f 49/37/5 46/34/5 48/36/5
f 51/37/10 14/36/10 46/34/10
f 53/40/1 49/37/1 52/39/1
f 51/37/4 53/40/4 56/38/4
f 56/43/12 55/42/12 14/17/17
f 50/43/12 48/17/17 55/42/12
f 58/22/18 55/42/12 57/21/18
f 58/22/18 52/21/18 55/42/12
f 59/48/5 7/44/5 49/46/5
f 3/48/10 51/46/10 7/44/10
f 53/72/1 1/47/1 49/46/1
f 53/72/4 51/46/4 1/47/4
f 61/52/31 4/49/19 60/51/20
f 62/52/32 60/51/21 5/49/22
f 6/54/7 4/49/6 63/53/24
f 62/52/27 5/49/9 63/53/25
f 66/57/81 70/55/26 61/52/23
f 64/57/82 62/52/27 70/55/28
f 60/51/20 69/56/29 61/52/31
f 60/51/21 62/52/32 69/56/34
f 72/66/57 67/60/39 69/62/41
f 68/61/51 73/63/50 66/59/83
f 74/68/54 71/65/47 72/66/49
f 74/68/54 73/63/50 71/65/47
f 77/70/84 75/67/53 74/68/54
f 77/70/85 74/68/54 76/69/55
f 79/63/71 75/67/58 78/68/60
f 80/66/70 78/68/60 76/69/62
f 79/63/86 84/61/63 75/67/65
f 69/62/72 82/60/66 76/69/68
f 82/60/87 81/65/69 80/66/70
f 84/61/88 79/63/71 81/65/69
